#!OML:ASF E:/inclinewalkrobotboard/Project1/Captureday1/Session1/subject1.ASF
:FULLY-SPECIFIED
:DEGREES
213
root 0 0 0 76.31532663892037 -27.412693196516862 -45.45777058874719
lowerback -11.187825086082837 7.863152543006235 9.56765436960402
upperback -20.51551265580548 10.074321937070165 2.958368252781354
thorax -15.454906270363018 3.9700606053149157 -1.712660359446696
lowerneck -7.545871559724686 9.772039543048932 5.411411256769967
upperneck 11.710011807804179 11.680490434234096 7.288062857993048
head 4.805091176547353 6.267360737070237 2.0770641947679254
rclavicle 6.070246341011814E-15 -3.420651742716291E-15
rhumerus 108.74497250221201 -24.945583924013032 -115.15028823023675
rradius 0.8149849667575602
rwrist 69.64221438118031
rhand 13.721427075748839 -12.59791188007877
rfingers 7.125020000000017
rthumb 38.71811484665818 -38.49194479705264
lclavicle -6.83635053153802E-16 1.5010486032396512E-15
lhumerus -0.1124198663689473 24.99553970463186 1.7302158677240556
lradius 9.273551429080236
lwrist -41.467344436992505
lhand 12.08856785942142 36.729511624106536
lfingers 7.125020000000047
lthumb 37.19646703883658 63.823836133002146
rfemur 183.0922248244072 -219.73729892518622 -192.0638370492668
rtibia 67.37336253569617
rfoot -22.83944526681575 -9.93239368922758
rtoes 49.87721048573232
lfemur -109.45621232215802 35.76358760961886 -24.14597879095998
ltibia 68.11097813410102
lfoot -38.32616814707214 35.57432014497064
ltoes 38.925283070688714
214
root 0 0 0 76.32005582740341 -27.388440296593796 -45.465495457425625
lowerback -11.188616394896702 7.86285345334187 9.572513360828465
upperback -20.51914339210768 10.0741347146053 2.9617733292552892
thorax -15.457887626282472 3.96966158236191 -1.7116925074995688
lowerneck -7.539763701013078 9.771598478527364 5.410408304627101
upperneck 11.711175870262661 11.68041017839054 7.287841026670886
head 4.80472639435828 6.2671069957673575 2.07680858634874
rclavicle 6.140620380815812E-15 -3.345541300609997E-15
rhumerus 108.80557263818939 -24.94353303731964 -115.1187628919735
rradius 0.8746473547645763
rwrist 69.58517632454249
rhand 13.695991037803608 -12.578247523221469
rfingers 7.125020000000017
rthumb 38.69317902605558 -38.47487496530268
lclavicle -5.730276240850995E-16 1.5817385619029195E-15
lhumerus -0.43134817461698205 24.831133960588186 1.715860274970737
lradius 9.352978560599585
lwrist -41.458782350408704
lhand 12.12153568044808 36.76324142917872
lfingers 7.125020000000047
lthumb 37.22758480349862 63.848446013649955
rfemur 183.10430988010552 -219.78190462801712 -192.08512449699634
rtibia 67.33130824265041
rfoot -23.052543794142014 -9.803989079131364
rtoes 49.80893464717306
lfemur -109.46325409062258 35.773683543443255 -24.135304459981764
ltibia 67.97455592364986
lfoot -38.28941143884101 35.607863708925834
ltoes 38.96662719587312
215
root 0 0 0 76.3177157059664 -27.400943740860022 -45.461520723992
lowerback -11.18831776810551 7.8630166991184165 9.570059883219601
upperback -20.517576930053927 10.074217590157954 2.960220593095472
thorax -15.456667083357383 3.969862214966124 -1.7119477777059977
lowerneck -7.542560399372712 9.772166185346244 5.4109572153391134
upperneck 11.70950905378707 11.68099289319523 7.288233753629138
head 4.804444944148039 6.2674874048206375 2.0770395761555673
rclavicle 6.088189188866567E-15 -3.4230693253925766E-15
rhumerus 108.80675087179799 -24.953318248377787 -115.15060689237578
rradius 0.8546960871550873
rwrist 69.59945390859122
rhand 13.692558962156134 -12.579473856506302
rfingers 7.125020000000017
rthumb 38.69032223100492 -38.47772807024969
lclavicle -6.269566031180882E-16 1.5068917970913801E-15
lhumerus -0.24855532905340283 24.87582743585128 1.6849151660552621
lradius 9.330740537985879
lwrist -41.44951136405189
lhand 12.12199330481093 36.758078131236914
lfingers 7.125020000000047
lthumb 37.22806416500427 63.84410438007673
rfemur 183.1134104365593 -219.76909775427737 -192.08446959374828
rtibia 67.35606507734788
rfoot -22.937371719812663 -9.85595009382326
rtoes 49.84282670911356
lfemur -109.45763160000303 35.770713096607906 -24.129267033205316
ltibia 68.01750856567975
lfoot -38.3080482517142 35.591604934003286
ltoes 38.95669287074362
216
root 0 0 0 76.31707840506168 -27.403770991742796 -45.46052289959115
lowerback -11.18813583651222 7.863088125564602 9.569406328125341
upperback -20.517200261942868 10.074272222185439 2.95983260960751
thorax -15.456446395081617 3.9699323043044075 -1.7119845891443761
lowerneck -7.543264862115134 9.772330212588306 5.411052185778669
upperneck 11.708735663228776 11.681196755495703 7.288393960375037
head 4.8042370277729125 6.2676048314620365 2.0771198394660666
rclavicle 6.082077043825903E-15 -3.4254666871346117E-15
rhumerus 108.77348916115058 -24.952140550070155 -115.15689369556671
rradius 0.8345764189910838
rwrist 69.61656617250131
rhand 13.701662625033798 -12.585033373960213
rfingers 7.125020000000017
rthumb 38.69916710856553 -38.48210173444109
lclavicle -6.526581003467896E-16 1.4993213973591864E-15
lhumerus -0.16434683706929576 24.916670851586325 1.6848383259035273
lradius 9.312156311603914
lwrist -41.45243729520442
lhand 12.116384224990643 36.749734620743965
lfingers 7.125020000000047
lthumb 37.222798620704864 63.83769748557288
rfemur 183.10386618834343 -219.75229533789275 -192.07444056044176
rtibia 67.36573125915334
rfoot -22.879932592987604 -9.897681214327141
rtoes 49.86159431729891
lfemur -109.45457627553156 35.76916330525081 -24.132987658421285
ltibia 68.05253714635747
lfoot -38.31440741882252 35.582852462960844
ltoes 38.945511238505176
